<svg preserveAspectRatio="none" width="100%" height="100%" overflow="visible" style="display: block;" viewBox="0 0 139.998 181.15" fill="none" xmlns="http://www.w3.org/2000/svg">
<g id="Group">
<path id="Vector" d="M66.7376 180.85L75.2076 181L70.9676 117.99L66.7376 180.85Z" fill="var(--fill-0, #BA5D00)"/>
<path id="Vector_2" d="M32.0576 147.1L38.9776 122.24C39.2776 121.15 40.2976 120.42 41.4276 120.48C42.5576 120.54 43.4876 121.38 43.6776 122.49L48.1976 149.93L53.7376 97.72C53.8676 96.48 54.9076 95.54 56.1676 95.56C57.4176 95.58 58.4376 96.54 58.5376 97.78L63.3676 159.22L68.5676 81.93C68.6476 80.66 69.7076 79.68 70.9676 79.68C72.2376 79.68 73.2876 80.66 73.3676 81.93L78.5676 159.11L83.3976 97.79C83.4976 96.55 84.5176 95.59 85.7676 95.57C85.7776 95.57 85.7876 95.57 85.7976 95.57C87.0276 95.57 88.0676 96.5 88.1976 97.73L93.7376 149.94L98.2576 122.5C98.4376 121.38 99.3776 120.55 100.508 120.49C101.628 120.42 102.658 121.16 102.958 122.25L109.878 147.11H132.158C142.018 129.07 142.468 106.88 134.128 87.59C129.678 77.3 125.038 68.04 116.568 59.5C116.638 68.85 121.488 83.73 109.858 89.37C108.438 90.06 104.618 89.63 103.668 88.52C99.3676 83.51 107.918 65.9 99.2876 44.36C91.8376 25.79 78.5076 9.71 59.3176 0C65.7876 19.82 61.8976 39.46 49.6376 55.25L35.2276 73.8C35.4876 62.6 35.4376 52.86 28.4076 45.19C27.6776 53.22 25.5876 59.27 21.8076 65.28L8.36762 86.66C-3.51238 105.55 -1.98238 128.67 8.17762 147.1H32.0676H32.0576Z" fill="var(--fill-0, #BA5D00)"/>
<path id="Vector_3" d="M108.028 151.92C106.948 151.92 105.998 151.2 105.708 150.16L101.218 134.04L95.5776 168.3C95.3776 169.49 94.3376 170.35 93.1276 170.32C91.9176 170.28 90.9276 169.36 90.7976 168.17L86.1376 124.2L81.6576 181.13L82.8676 181.15C99.2076 179.18 113.178 170.77 124.108 158.5C125.978 156.41 127.658 154.21 129.198 151.93H108.028V151.92Z" fill="var(--fill-0, #BA5D00)"/>
<path id="Vector_4" d="M55.7776 124.2L51.1176 168.15C50.9876 169.35 49.9976 170.27 48.7876 170.3C47.5876 170.32 46.5376 169.47 46.3376 168.28L40.6976 134.02L36.2076 150.14C35.9176 151.18 34.9676 151.9 33.8876 151.9H11.0976C16.9776 160.73 24.9376 168.17 34.3676 173.08C41.8276 176.96 49.5476 181.34 58.6276 180.68L60.2076 180.71L55.7676 124.18L55.7776 124.2Z" fill="var(--fill-0, #BA5D00)"/>
</g>
</svg>
