<svg preserveAspectRatio="none" width="100%" height="100%" overflow="visible" style="display: block;" viewBox="0 0 439.22 123.62" fill="none" xmlns="http://www.w3.org/2000/svg">
<g id="Group">
<path id="Vector" d="M29.62 109.77C26.82 118.76 25.05 123.62 15.77 123.62C9.14 123.62 0 120.82 0 112.72C0 110.07 0.879997 106.97 2.95 101.52L32.71 19.6C36.39 9.43 39.93 0 55.99 0C63.06 0 70.13 2.8 73.82 8.99C75.88 12.38 77.21 15.92 78.53 19.6L108.14 101.52C109.76 105.79 111.09 109.48 111.09 112.86C111.09 120.82 101.81 123.62 95.32 123.62C85.89 123.62 84.42 118.91 81.47 109.77L77.49 97.69H33.44L29.61 109.77H29.62ZM70.14 74.7L55.55 29.91L40.96 74.7H70.13H70.14Z" fill="var(--fill-0, #2E6675)"/>
<path id="Vector_2" d="M140.42 92.53C141.45 92.53 142.63 92.68 146.61 94.3C152.36 96.66 158.1 98.43 164.29 98.43C171.51 98.43 181.68 95.78 181.68 86.94C181.68 77.36 170.33 74.42 163.11 71.76C155.01 68.81 148.23 66.6 141.75 60.56C134.97 54.37 132.03 46.27 132.03 37.28C132.03 14.44 150.59 0 172.4 0C179.62 0 189.05 1.77 195.53 4.86C200.24 7.07 202.45 10.46 202.45 15.62C202.45 21.96 198.91 29.18 191.69 29.18C190.07 29.18 188.01 28.44 184.62 27.26C181.08 26.08 176.96 25.2 173.13 25.2C166.65 25.2 159.43 28.44 159.43 35.81C159.43 43.18 166.06 45.39 173.13 47.74C182.71 50.83 193.46 54.81 199.5 60.85C206.28 67.63 209.22 75.88 209.22 84.87C209.22 109.92 188.3 123.62 165.02 123.62C155.15 123.62 144.39 121.26 135.55 116.84C130.98 114.48 128.48 111.09 128.48 105.94C128.48 99.16 133.34 92.53 140.41 92.53H140.42Z" fill="var(--fill-0, #2E6675)"/>
<path id="Vector_3" d="M240.31 92.53C241.34 92.53 242.52 92.68 246.5 94.3C252.25 96.66 257.99 98.43 264.18 98.43C271.4 98.43 281.57 95.78 281.57 86.94C281.57 77.36 270.23 74.42 263.01 71.76C254.91 68.81 248.13 66.6 241.65 60.56C234.87 54.37 231.93 46.27 231.93 37.28C231.93 14.44 250.5 0 272.3 0C279.52 0 288.95 1.77 295.43 4.86C300.14 7.07 302.36 10.46 302.36 15.62C302.36 21.96 298.82 29.18 291.6 29.18C289.98 29.18 287.92 28.44 284.53 27.26C280.99 26.08 276.87 25.2 273.04 25.2C266.56 25.2 259.34 28.44 259.34 35.81C259.34 43.18 265.97 45.39 273.04 47.74C282.62 50.83 293.37 54.81 299.41 60.85C306.19 67.63 309.13 75.88 309.13 84.87C309.13 109.92 288.21 123.62 264.93 123.62C255.06 123.62 244.3 121.26 235.46 116.84C230.89 114.48 228.39 111.09 228.39 105.94C228.39 99.16 233.25 92.53 240.32 92.53H240.31Z" fill="var(--fill-0, #2E6675)"/>
<path id="Vector_4" d="M357.74 109.77C354.94 118.76 353.17 123.62 343.89 123.62C337.26 123.62 328.12 120.82 328.12 112.72C328.12 110.07 329 106.97 331.07 101.52L360.83 19.6C364.51 9.43 368.05 0 384.11 0C391.18 0 398.25 2.8 401.94 8.99C404 12.38 405.33 15.92 406.65 19.6L436.27 101.52C437.89 105.79 439.22 109.48 439.22 112.86C439.22 120.82 429.94 123.62 423.46 123.62C414.03 123.62 412.56 118.91 409.61 109.77L405.63 97.69H361.58L357.75 109.77H357.74ZM398.26 74.7L383.67 29.91L369.08 74.7H398.25H398.26Z" fill="var(--fill-0, #2E6675)"/>
</g>
</svg>
