<?xml version="1.0" encoding="UTF-8"?>
<svg id="_レイヤー_2" data-name="レイヤー 2" xmlns="http://www.w3.org/2000/svg" viewBox="0 0 163.44 243.32">
  <defs>
    <style>
      .cls-1 {
        fill: #2e6675;
      }

      .cls-2 {
        fill: #ba5d00;
      }
    </style>
  </defs>
  <g id="_レイヤー_1-2" data-name="レイヤー 1">
    <g>
      <path class="cls-1" d="M11.02,238.16c-1.04,3.34-1.7,5.15-5.15,5.15-2.47,0-5.87-1.04-5.87-4.06,0-.99.33-2.14,1.1-4.17l11.08-30.49c1.37-3.78,2.69-7.29,8.66-7.29,2.63,0,5.26,1.04,6.63,3.34.77,1.26,1.26,2.58,1.75,3.95l11.02,30.49c.6,1.59,1.1,2.96,1.1,4.22,0,2.96-3.45,4-5.87,4-3.51,0-4.06-1.75-5.15-5.15l-1.48-4.5H12.45l-1.43,4.5ZM26.1,225.11l-5.43-16.67-5.43,16.67h10.86Z"/>
      <path class="cls-1" d="M52.25,231.75c.38,0,.82.05,2.3.66,2.14.88,4.28,1.54,6.58,1.54,2.69,0,6.47-.99,6.47-4.28,0-3.56-4.22-4.66-6.91-5.65-3.02-1.1-5.54-1.92-7.95-4.17-2.52-2.3-3.62-5.32-3.62-8.66,0-8.5,6.91-13.87,15.02-13.87,2.69,0,6.2.66,8.61,1.81,1.75.82,2.58,2.08,2.58,4,0,2.36-1.32,5.04-4,5.04-.6,0-1.37-.27-2.63-.71-1.32-.44-2.85-.77-4.28-.77-2.41,0-5.1,1.21-5.1,3.95s2.47,3.56,5.1,4.44c3.56,1.15,7.57,2.63,9.81,4.88,2.52,2.52,3.62,5.59,3.62,8.94,0,9.32-7.79,14.42-16.45,14.42-3.67,0-7.68-.88-10.97-2.52-1.7-.88-2.63-2.14-2.63-4.06,0-2.52,1.81-4.99,4.44-4.99Z"/>
      <path class="cls-1" d="M89.42,231.75c.38,0,.82.05,2.3.66,2.14.88,4.28,1.54,6.58,1.54,2.69,0,6.47-.99,6.47-4.28,0-3.56-4.22-4.66-6.91-5.65-3.02-1.1-5.54-1.92-7.95-4.17-2.52-2.3-3.62-5.32-3.62-8.66,0-8.5,6.91-13.87,15.02-13.87,2.69,0,6.2.66,8.61,1.81,1.75.82,2.58,2.08,2.58,4,0,2.36-1.32,5.04-4,5.04-.6,0-1.37-.27-2.63-.71-1.32-.44-2.85-.77-4.28-.77-2.41,0-5.1,1.21-5.1,3.95s2.47,3.56,5.1,4.44c3.56,1.15,7.57,2.63,9.81,4.88,2.52,2.52,3.62,5.59,3.62,8.94,0,9.32-7.79,14.42-16.45,14.42-3.67,0-7.68-.88-10.97-2.52-1.7-.88-2.63-2.14-2.63-4.06,0-2.52,1.81-4.99,4.44-4.99Z"/>
      <path class="cls-1" d="M133.12,238.16c-1.04,3.34-1.7,5.15-5.15,5.15-2.47,0-5.87-1.04-5.87-4.06,0-.99.33-2.14,1.1-4.17l11.08-30.49c1.37-3.78,2.69-7.29,8.66-7.29,2.63,0,5.26,1.04,6.63,3.34.77,1.26,1.26,2.58,1.75,3.95l11.02,30.49c.6,1.59,1.1,2.96,1.1,4.22,0,2.96-3.45,4-5.87,4-3.51,0-4.06-1.75-5.15-5.15l-1.48-4.5h-16.39l-1.43,4.5ZM148.2,225.11l-5.43-16.67-5.43,16.67h10.86Z"/>
    </g>
    <g>
      <polygon class="cls-2" points="78.47 180.85 86.94 181 82.69 117.99 78.47 180.85"/>
      <path class="cls-2" d="M43.79,147.1l6.92-24.86c.3-1.09,1.32-1.82,2.45-1.76,1.13.06,2.06.9,2.25,2.01l4.52,27.44,5.54-52.21c.13-1.24,1.17-2.18,2.43-2.16,1.25.02,2.27.98,2.37,2.22l4.83,61.44,5.2-77.29c.08-1.27,1.14-2.25,2.4-2.25,1.27,0,2.32.98,2.4,2.25l5.2,77.18,4.83-61.32c.1-1.24,1.12-2.2,2.37-2.22.01,0,.02,0,.03,0,1.23,0,2.27.93,2.4,2.16l5.54,52.21,4.52-27.44c.18-1.12,1.12-1.95,2.25-2.01,1.12-.07,2.15.67,2.45,1.76l6.92,24.86h22.28c9.86-18.04,10.31-40.23,1.97-59.52-4.45-10.29-9.09-19.55-17.56-28.09.07,9.35,4.92,24.23-6.71,29.87-1.42.69-5.24.26-6.19-.85-4.3-5.01,4.25-22.62-4.38-44.16C103.57,25.79,90.24,9.71,71.05,0c6.47,19.82,2.58,39.46-9.68,55.25l-14.41,18.55c.26-11.2.21-20.94-6.82-28.61-.73,8.03-2.82,14.08-6.6,20.09l-13.44,21.38c-11.88,18.89-10.35,42.01-.19,60.44h23.89Z"/>
      <path class="cls-2" d="M119.76,151.92c-1.08,0-2.03-.72-2.32-1.76l-4.49-16.12-5.64,34.26c-.2,1.19-1.24,2.05-2.45,2.02-1.21-.04-2.2-.96-2.33-2.15l-4.66-43.97-4.48,56.93,1.21.02c16.34-1.97,30.31-10.38,41.24-22.65,1.87-2.09,3.55-4.29,5.09-6.57h-21.17Z"/>
      <path class="cls-2" d="M67.51,124.2l-4.66,43.95c-.13,1.2-1.12,2.12-2.33,2.15-1.2.02-2.25-.83-2.45-2.02l-5.64-34.26-4.49,16.12c-.29,1.04-1.24,1.76-2.32,1.76h-22.79c5.88,8.83,13.84,16.27,23.27,21.18,7.46,3.88,15.18,8.26,24.26,7.6l1.58.03-4.44-56.53Z"/>
    </g>
  </g>
</svg>