<?xml version="1.0" encoding="UTF-8"?>
<svg id="_レイヤー_2" data-name="レイヤー 2" xmlns="http://www.w3.org/2000/svg" viewBox="0 0 633.58 181.14">
  <defs>
    <style>
      .cls-1 {
        fill: #2e6675;
      }

      .cls-2 {
        fill: #ba5d00;
      }
    </style>
  </defs>
  <g id="_レイヤー_1-2" data-name="レイヤー 1">
    <g>
      <path class="cls-1" d="M223.98,159.42c-2.8,8.99-4.57,13.85-13.85,13.85-6.63,0-15.77-2.8-15.77-10.9,0-2.65.88-5.75,2.95-11.2l29.76-81.92c3.68-10.17,7.22-19.6,23.28-19.6,7.07,0,14.14,2.8,17.83,8.99,2.06,3.39,3.39,6.93,4.71,10.61l29.61,81.92c1.62,4.27,2.95,7.96,2.95,11.34,0,7.96-9.28,10.76-15.77,10.76-9.43,0-10.9-4.71-13.85-13.85l-3.98-12.08h-44.05l-3.83,12.08ZM264.5,124.35l-14.59-44.79-14.59,44.79h29.17Z"/>
      <path class="cls-1" d="M334.78,142.18c1.03,0,2.21.15,6.19,1.77,5.75,2.36,11.49,4.13,17.68,4.13,7.22,0,17.39-2.65,17.39-11.49,0-9.58-11.35-12.52-18.57-15.18-8.1-2.95-14.88-5.16-21.36-11.2-6.78-6.19-9.72-14.29-9.72-23.28,0-22.84,18.56-37.28,40.37-37.28,7.22,0,16.65,1.77,23.13,4.86,4.71,2.21,6.92,5.6,6.92,10.76,0,6.34-3.54,13.56-10.76,13.56-1.62,0-3.68-.74-7.07-1.92-3.54-1.18-7.66-2.06-11.49-2.06-6.48,0-13.7,3.24-13.7,10.61s6.63,9.58,13.7,11.93c9.58,3.09,20.33,7.07,26.37,13.11,6.78,6.78,9.72,15.03,9.72,24.02,0,25.05-20.92,38.75-44.2,38.75-9.87,0-20.63-2.36-29.47-6.78-4.57-2.36-7.07-5.75-7.07-10.9,0-6.78,4.86-13.41,11.93-13.41Z"/>
      <path class="cls-1" d="M434.67,142.18c1.03,0,2.21.15,6.19,1.77,5.75,2.36,11.49,4.13,17.68,4.13,7.22,0,17.39-2.65,17.39-11.49,0-9.58-11.34-12.52-18.56-15.18-8.1-2.95-14.88-5.16-21.36-11.2-6.78-6.19-9.72-14.29-9.72-23.28,0-22.84,18.57-37.28,40.37-37.28,7.22,0,16.65,1.77,23.13,4.86,4.71,2.21,6.93,5.6,6.93,10.76,0,6.34-3.54,13.56-10.76,13.56-1.62,0-3.68-.74-7.07-1.92-3.54-1.18-7.66-2.06-11.49-2.06-6.48,0-13.7,3.24-13.7,10.61s6.63,9.58,13.7,11.93c9.58,3.09,20.33,7.07,26.37,13.11,6.78,6.78,9.72,15.03,9.72,24.02,0,25.05-20.92,38.75-44.2,38.75-9.87,0-20.63-2.36-29.47-6.78-4.57-2.36-7.07-5.75-7.07-10.9,0-6.78,4.86-13.41,11.93-13.41Z"/>
      <path class="cls-1" d="M552.1,159.42c-2.8,8.99-4.57,13.85-13.85,13.85-6.63,0-15.77-2.8-15.77-10.9,0-2.65.88-5.75,2.95-11.2l29.76-81.92c3.68-10.17,7.22-19.6,23.28-19.6,7.07,0,14.14,2.8,17.83,8.99,2.06,3.39,3.39,6.93,4.71,10.61l29.62,81.92c1.62,4.27,2.95,7.96,2.95,11.34,0,7.96-9.28,10.76-15.76,10.76-9.43,0-10.9-4.71-13.85-13.85l-3.98-12.08h-44.05l-3.83,12.08ZM592.62,124.35l-14.59-44.79-14.59,44.79h29.17Z"/>
    </g>
    <g>
      <polygon class="cls-2" points="66.74 180.85 75.21 181 70.97 117.99 66.74 180.85"/>
      <path class="cls-2" d="M32.06,147.1l6.92-24.86c.3-1.09,1.32-1.82,2.45-1.76,1.13.06,2.06.9,2.25,2.01l4.52,27.44,5.54-52.21c.13-1.24,1.17-2.18,2.43-2.16,1.25.02,2.27.98,2.37,2.22l4.83,61.44,5.2-77.29c.08-1.27,1.14-2.25,2.4-2.25,1.27,0,2.32.98,2.4,2.25l5.2,77.18,4.83-61.32c.1-1.24,1.12-2.2,2.37-2.22.01,0,.02,0,.03,0,1.23,0,2.27.93,2.4,2.16l5.54,52.21,4.52-27.44c.18-1.12,1.12-1.95,2.25-2.01,1.12-.07,2.15.67,2.45,1.76l6.92,24.86h22.28c9.86-18.04,10.31-40.23,1.97-59.52-4.45-10.29-9.09-19.55-17.56-28.09.07,9.35,4.92,24.23-6.71,29.87-1.42.69-5.24.26-6.19-.85-4.3-5.01,4.25-22.62-4.38-44.16C91.84,25.79,78.51,9.71,59.32,0c6.47,19.82,2.58,39.46-9.68,55.25l-14.41,18.55c.26-11.2.21-20.94-6.82-28.61-.73,8.03-2.82,14.08-6.6,20.09l-13.44,21.38c-11.88,18.89-10.35,42.01-.19,60.44h23.89Z"/>
      <path class="cls-2" d="M108.03,151.92c-1.08,0-2.03-.72-2.32-1.76l-4.49-16.12-5.64,34.26c-.2,1.19-1.24,2.05-2.45,2.02-1.21-.04-2.2-.96-2.33-2.15l-4.66-43.97-4.48,56.93,1.21.02c16.34-1.97,30.31-10.38,41.24-22.65,1.87-2.09,3.55-4.29,5.09-6.57h-21.17Z"/>
      <path class="cls-2" d="M55.78,124.2l-4.66,43.95c-.13,1.2-1.12,2.12-2.33,2.15-1.2.02-2.25-.83-2.45-2.02l-5.64-34.26-4.49,16.12c-.29,1.04-1.24,1.76-2.32,1.76H11.1c5.88,8.83,13.84,16.27,23.27,21.18,7.46,3.88,15.18,8.26,24.26,7.6l1.58.03-4.44-56.53Z"/>
    </g>
  </g>
</svg>